<svg width="256" height="256" viewBox="0 0 256 256" fill="none" xmlns="http://www.w3.org/2000/svg">
<path fill-rule="evenodd" clip-rule="evenodd" d="M254.681 62.1224C231.865 32.0266 195.133 12.5 153.708 12.5C84.4942 12.5 28.3854 67.0093 28.3854 134.25C28.3854 198.869 80.2049 251.731 145.676 255.754C142.841 255.917 139.983 256 137.105 256C61.3839 256 0 198.692 0 128C0 57.3076 61.3839 0 137.105 0C187.018 0 230.702 24.9009 254.681 62.1224Z" fill="url(#paint0_linear_15_2)"/>
<path d="M117.289 134.602C117.289 150.204 103.741 162.852 87.0291 162.852C70.3173 162.852 56.7697 150.204 56.7697 134.602C56.7697 119 70.3173 106.352 87.0291 106.352C103.741 106.352 117.289 119 117.289 134.602Z" fill="url(#paint1_linear_15_2)"/>
<path d="M232.436 134.602C232.436 150.204 218.888 162.852 202.176 162.852C185.465 162.852 171.917 150.204 171.917 134.602C171.917 119 185.465 106.352 202.176 106.352C218.888 106.352 232.436 119 232.436 134.602Z" fill="url(#paint2_linear_15_2)"/>
<path d="M232.436 134.602C232.436 150.204 218.888 162.852 202.176 162.852C185.465 162.852 171.917 150.204 171.917 134.602C171.917 119 185.465 106.352 202.176 106.352C218.888 106.352 232.436 119 232.436 134.602Z" stroke="#FFF501"/>
<ellipse cx="142.728" cy="191.25" rx="30.2595" ry="28.25" fill="url(#paint3_linear_15_2)"/>
<path d="M172.988 78.25C172.988 93.852 159.44 106.5 142.728 106.5C126.017 106.5 112.469 93.852 112.469 78.25C112.469 62.648 126.017 50 142.728 50C159.44 50 172.988 62.648 172.988 78.25Z" fill="url(#paint4_linear_15_2)"/>
<path fill-rule="evenodd" clip-rule="evenodd" d="M255.959 121.872C255.986 121.001 256 120.127 256 119.25C256 69.1302 211.041 28.5 155.581 28.5C125.49 28.5 98.4907 40.461 80.0861 59.409C98.5813 47.2001 121.337 40 145.942 40C200.33 40 245.679 75.179 255.959 121.872Z" fill="url(#paint5_linear_15_2)"/>
<defs>
<linearGradient id="paint0_linear_15_2" x1="274.207" y1="215.75" x2="42.9359" y2="-15.8664" gradientUnits="userSpaceOnUse">
<stop stop-color="#FF5C00"/>
<stop offset="0.74" stop-color="#FFF500"/>
</linearGradient>
<linearGradient id="paint1_linear_15_2" x1="56.7697" y1="134.602" x2="117.289" y2="134.602" gradientUnits="userSpaceOnUse">
<stop stop-color="#FFF501"/>
<stop offset="1" stop-color="#FF7301"/>
</linearGradient>
<linearGradient id="paint2_linear_15_2" x1="171.917" y1="106.352" x2="228.284" y2="166.728" gradientUnits="userSpaceOnUse">
<stop stop-color="#FFF501"/>
<stop offset="1" stop-color="#994D01"/>
</linearGradient>
<linearGradient id="paint3_linear_15_2" x1="112.469" y1="163" x2="168.836" y2="223.376" gradientUnits="userSpaceOnUse">
<stop stop-color="#FFF501"/>
<stop offset="1" stop-color="#FF7101"/>
</linearGradient>
<linearGradient id="paint4_linear_15_2" x1="172.988" y1="106.5" x2="116.621" y2="46.1237" gradientUnits="userSpaceOnUse">
<stop stop-color="#FF8501"/>
<stop offset="1" stop-color="#FFF501"/>
</linearGradient>
<linearGradient id="paint5_linear_15_2" x1="198.458" y1="36.0397" x2="198.458" y2="237.68" gradientUnits="userSpaceOnUse">
<stop stop-color="#FFF501"/>
<stop offset="0.0989996" stop-color="#BC6D0F"/>
</linearGradient>
</defs>
</svg>
