<svg width="512" height="512" viewBox="0 0 512 512" fill="none" xmlns="http://www.w3.org/2000/svg">
<path fill-rule="evenodd" clip-rule="evenodd" d="M509.361 124.244C463.728 64.0529 390.266 25 307.415 25C168.988 25 56.7708 134.019 56.7708 268.5C56.7708 397.739 160.41 503.462 291.351 511.508C285.682 511.834 279.966 512 274.209 512C122.768 512 0 397.385 0 256C0 114.615 122.768 0 274.209 0C374.036 0 461.403 49.8015 509.361 124.244Z" fill="url(#paint0_linear_0_1)"/>
<path d="M234.577 269.204C234.577 300.408 207.482 325.704 174.058 325.704C140.634 325.704 113.539 300.408 113.539 269.204C113.539 237.999 140.634 212.704 174.058 212.704C207.482 212.704 234.577 237.999 234.577 269.204Z" fill="url(#paint1_linear_0_1)"/>
<path d="M464.871 269.204C464.871 300.408 437.776 325.704 404.352 325.704C370.929 325.704 343.833 300.408 343.833 269.204C343.833 237.999 370.929 212.704 404.352 212.704C437.776 212.704 464.871 237.999 464.871 269.204Z" fill="url(#paint2_linear_0_1)"/>
<path d="M464.871 269.204C464.871 300.408 437.776 325.704 404.352 325.704C370.929 325.704 343.833 300.408 343.833 269.204C343.833 237.999 370.929 212.704 404.352 212.704C437.776 212.704 464.871 237.999 464.871 269.204Z" stroke="#FFF501"/>
<ellipse cx="285.456" cy="382.5" rx="60.5188" ry="56.5" fill="url(#paint3_linear_0_1)"/>
<path d="M345.975 156.5C345.975 187.704 318.88 213 285.456 213C252.033 213 224.938 187.704 224.938 156.5C224.938 125.296 252.033 100 285.456 100C318.88 100 345.975 125.296 345.975 156.5Z" fill="url(#paint4_linear_0_1)"/>
<path fill-rule="evenodd" clip-rule="evenodd" d="M511.917 243.744C511.972 242.002 511.999 240.254 511.999 238.5C511.999 138.26 422.081 57 311.162 57C250.98 57 196.981 80.922 160.172 118.818C197.162 94.4002 242.673 80 291.883 80C400.658 80 491.357 150.358 511.917 243.744Z" fill="url(#paint5_linear_0_1)"/>
<defs>
<linearGradient id="paint0_linear_0_1" x1="548.413" y1="431.5" x2="85.8702" y2="-31.7315" gradientUnits="userSpaceOnUse">
<stop stop-color="#FF5C00"/>
<stop offset="0.74" stop-color="#FFF500"/>
</linearGradient>
<linearGradient id="paint1_linear_0_1" x1="113.539" y1="269.204" x2="234.577" y2="269.204" gradientUnits="userSpaceOnUse">
<stop stop-color="#FFF501"/>
<stop offset="1" stop-color="#FF7301"/>
</linearGradient>
<linearGradient id="paint2_linear_0_1" x1="343.833" y1="212.704" x2="456.567" y2="333.456" gradientUnits="userSpaceOnUse">
<stop stop-color="#FFF501"/>
<stop offset="1" stop-color="#994D01"/>
</linearGradient>
<linearGradient id="paint3_linear_0_1" x1="224.938" y1="326" x2="337.671" y2="446.752" gradientUnits="userSpaceOnUse">
<stop stop-color="#FFF501"/>
<stop offset="1" stop-color="#FF7101"/>
</linearGradient>
<linearGradient id="paint4_linear_0_1" x1="345.975" y1="213" x2="233.241" y2="92.2475" gradientUnits="userSpaceOnUse">
<stop stop-color="#FF8501"/>
<stop offset="1" stop-color="#FFF501"/>
</linearGradient>
<linearGradient id="paint5_linear_0_1" x1="396.915" y1="72.0794" x2="396.915" y2="475.36" gradientUnits="userSpaceOnUse">
<stop stop-color="#FFF501"/>
<stop offset="0.0989996" stop-color="#BC6D0F"/>
</linearGradient>
</defs>
</svg>
